<?xml version="1.0" encoding="UTF-8"?>
<svg xmlns="http://www.w3.org/2000/svg" version="1.1" viewBox="0 0 90 90">
 <path d="m88.914 60.719-2.168-1.4883c-3.3516-2.0508-1.3555-6.1094-1.6133-9.2305 0.25-3.125-1.7422-7.1758 1.6133-9.2344l2.168-1.4883v0.003906c1.9805-1.293 2.6055-3.9023 1.4258-5.9492l-5.6992-9.9141c-1.1992-2.0391-3.7734-2.8008-5.8867-1.7383-2.2891 1.2344-4.8984 2.5586-7.25 0.55859-2.5117-1.9336-5.2617-3.5352-8.1797-4.7695-1.668-0.61328-2.8281-2.1367-2.9766-3.9062l-0.125-2.6641c-0.19141-2.3516-2.1641-4.1562-4.5234-4.1523h-11.402 0.003906c-2.3555-0.023438-4.3164 1.8008-4.4648 4.1523-0.078126 2.6602-0.23047 5.5078-3.0977 6.6289v0.003906c-2.9336 1.1758-5.6875 2.7578-8.1797 4.707-2.4414 2.0039-4.8711 0.76172-7.25-0.55859-2.1094-1.0703-4.6953-0.30859-5.8867 1.7383l-5.6992 9.9141c-1.2344 2.0234-0.62891 4.6602 1.3633 5.9492l2.2305 1.4883c3.3047 2.1133 1.3789 6.1016 1.6094 9.2344-0.25 3.125 1.7422 7.1758-1.6094 9.2344l-2.2305 1.4883v-0.007812c-1.9805 1.293-2.6055 3.9023-1.4258 5.9492l5.7617 9.9141c1.1797 2.0625 3.7578 2.8477 5.8867 1.7969 2.332-1.3867 4.8516-2.5898 7.25-0.62109v0.003907c2.4922 1.9492 5.2461 3.5312 8.1797 4.707 2.8281 1.1172 3.0273 3.8984 3.0977 6.5664v0.003906c0.14062 2.3633 2.0977 4.207 4.4648 4.2148h11.402-0.003906c2.375-0.023437 4.3359-1.8516 4.5273-4.2148l0.125-2.6016h-0.003906c0.14453-1.7852 1.3047-3.3281 2.9766-3.9688 2.9062-1.1875 5.6406-2.7734 8.1172-4.707 2.4453-1.9805 4.957-0.73047 7.3125 0.62109v-0.003906c2.1289 1.043 4.6992 0.25781 5.8867-1.7969l5.6992-9.9141c1.1797-2.0469 0.55469-4.6562-1.4258-5.9492zm-51.148-6.9102c1.1758 1.2305 1.1602 3.1719-0.046875 4.3789-1.2031 1.2031-3.1484 1.2227-4.375 0.042969l-6.0391-6.0391c-1.2109-1.2266-1.2109-3.1953 0-4.4219l6.0391-6.0391v0.003906c1.2266-1.1797 3.1719-1.1641 4.3789 0.042969 1.2031 1.2031 1.2227 3.1484 0.042969 4.375l-3.8281 3.8281zm15.359 6.0156c-0.023438 1.7109-1.418 3.082-3.125 3.082s-3.1016-1.3711-3.125-3.082v-19.648c0.023438-1.7109 1.418-3.082 3.125-3.082s3.1016 1.3711 3.125 3.082zm19.57-7.6367-6.0391 6.043c-0.58594 0.58984-1.3828 0.92188-2.2148 0.92188-0.82812 0-1.625-0.32812-2.2148-0.91406-0.58594-0.58984-0.91406-1.3867-0.91406-2.2148 0.003906-0.83203 0.33594-1.6289 0.92188-2.2148l3.8281-3.8281-3.8281-3.8281c-1.1758-1.2266-1.1602-3.1719 0.046875-4.375 1.2031-1.2031 3.1484-1.2227 4.375-0.042969l6.0391 6.0391v-0.003907c1.2109 1.2266 1.2109 3.1953 0 4.4219z"/>
</svg>
