<?xml version="1.0" encoding="UTF-8"?>
<svg xmlns="http://www.w3.org/2000/svg" x="0px" y="0px" width="100" height="100" viewBox="0 0 24 24">
  <path d="M 12.023438 0.60742188 A 1.0001 1.0001 0 0 0 11.5 0.7421875 L 2.5 5.9375 A 1.0001 1.0001 0 0 0 2 6.8046875 L 2 17.195312 A 1.0001 1.0001 0 0 0 2.5 18.0625 L 11.490234 23.251953 C 11.493881 23.254132 11.49632 23.257629 11.5 23.259766 C 11.506754 23.263818 11.514612 23.26568 11.521484 23.269531 A 1.0001603 1.0001603 0 0 0 11.724609 23.351562 C 11.73532 23.354463 11.745067 23.358789 11.755859 23.361328 A 1.0001603 1.0001603 0 0 0 11.996094 23.390625 A 1.0001603 1.0001603 0 0 0 12 23.390625 C 12.001269 23.390625 12.002636 23.390629 12.003906 23.390625 A 1.0001603 1.0001603 0 0 0 12.240234 23.361328 C 12.250302 23.359001 12.259532 23.356156 12.269531 23.353516 C 12.2707 23.353207 12.27227 23.353829 12.273438 23.353516 A 1.0001603 1.0001603 0 0 0 12.484375 23.265625 C 12.489211 23.26286 12.495223 23.262632 12.5 23.259766 L 21.5 18.060547 C 21.81 17.880547 22 17.549219 22 17.199219 L 22 6.8007812 C 22 6.8001305 22.000001 6.7994788 22 6.7988281 A 1.0001607 1.0001607 0 0 0 21.966797 6.5507812 A 1.0001607 1.0001607 0 0 0 21.964844 6.5429688 C 21.964138 6.540384 21.963617 6.5377346 21.962891 6.5351562 A 1.0001607 1.0001607 0 0 0 21.869141 6.3085938 A 1.0001607 1.0001607 0 0 0 21.867188 6.3066406 C 21.866474 6.3054099 21.865953 6.3039622 21.865234 6.3027344 A 1.0001607 1.0001607 0 0 0 21.5 5.9375 L 12.5 0.7421875 A 1.0001 1.0001 0 0 0 12.023438 0.60742188 z M 12 2.7617188 L 19 6.8046875 L 11.5 11.130859 C 11.19 11.310859 11 11.64 11 12 L 11 20.660156 L 4 16.619141 L 4 7.3808594 L 12 2.7617188 z M 17.587891 14.410156 C 17.725563 14.416156 17.830078 14.5305 17.830078 14.71875 L 17.830078 15.814453 C 17.830078 16.063453 17.698422 16.293922 17.482422 16.419922 L 14.972656 17.880859 C 14.746656 17.986859 14.564453 17.857375 14.564453 17.609375 L 14.564453 16.521484 C 14.564453 16.272484 14.696109 16.041016 14.912109 15.916016 L 17.441406 14.441406 C 17.492156 14.418156 17.542 14.408156 17.587891 14.410156 z"></path>
</svg>
