<?xml version="1.0" encoding="UTF-8"?>
<svg version="1.1" xmlns="http://www.w3.org/2000/svg" width="90" height="90">
<path d="M0 0 C0.77590485 -0.00525696 1.55180969 -0.01051392 2.35122681 -0.01593018 C4.91794927 -0.02914225 7.48405239 -0.02038807 10.05078125 -0.01025391 C11.83292765 -0.0122743 13.61507324 -0.01518545 15.3972168 -0.01895142 C19.1330553 -0.0233764 22.86867868 -0.01693817 26.60449219 -0.00292969 C31.39657209 0.01416236 36.18814795 0.0043221 40.98020935 -0.01364708 C44.66047981 -0.02448025 48.3406305 -0.02104074 52.02090454 -0.0132637 C53.78797464 -0.0112604 55.55505557 -0.01372553 57.32211304 -0.02070236 C59.79055649 -0.02830926 62.2581802 -0.01672393 64.7265625 0 C65.45912262 -0.00607269 66.19168274 -0.01214539 66.94644165 -0.0184021 C69.75276234 0.01687693 71.87306525 0.09659098 74.3163147 1.54989624 C75.80525236 4.16420637 75.74464019 6.18611681 75.75146484 9.18896484 C75.76092133 10.38030029 75.77037781 11.57163574 75.78012085 12.79907227 C75.77404816 14.086604 75.76797546 15.37413574 75.76171875 16.70068359 C75.7637398 18.03442545 75.76665151 19.36816622 75.77041626 20.7019043 C75.77483821 23.49620085 75.76841315 26.29020957 75.75439453 29.08447266 C75.73730219 32.66592825 75.74714414 36.24670941 75.76511192 39.82814026 C75.77595356 42.58196086 75.77250179 45.33562161 75.76472855 48.08944702 C75.76175454 50.05206744 75.77086417 52.01469408 75.78012085 53.97729492 C75.76593613 55.7642981 75.76593613 55.7642981 75.75146484 57.58740234 C75.74907806 58.63758545 75.74669128 59.68776855 75.74423218 60.76977539 C75.36328125 63.38818359 75.36328125 63.38818359 74.3163147 65.22647095 C71.27079021 67.03802431 68.16878371 66.80490212 64.7265625 66.77636719 C63.95065765 66.78162415 63.17475281 66.7868811 62.37533569 66.79229736 C59.80861323 66.80550944 57.24251011 66.79675526 54.67578125 66.78662109 C52.89363485 66.78864149 51.11148926 66.79155264 49.3293457 66.7953186 C45.5935072 66.79974358 41.85788382 66.79330535 38.12207031 66.77929688 C33.32999041 66.76220483 28.53841455 66.77204509 23.74635315 66.79001427 C20.06608269 66.80084744 16.385932 66.79740792 12.70565796 66.78963089 C10.93858786 66.78762759 9.17150693 66.79009271 7.40444946 66.79706955 C4.93600601 66.80467645 2.4683823 66.79309112 0 66.77636719 C-0.73256012 66.78243988 -1.46512024 66.78851257 -2.21987915 66.79476929 C-5.02619984 66.75949026 -7.14650275 66.6797762 -9.5897522 65.22647095 C-11.07868986 62.61216081 -11.01807769 60.59025037 -11.02490234 57.58740234 C-11.03435883 56.39606689 -11.04381531 55.20473145 -11.05355835 53.97729492 C-11.04748566 52.68976318 -11.04141296 51.40223145 -11.03515625 50.07568359 C-11.0371773 48.74194174 -11.04008901 47.40820096 -11.04385376 46.07446289 C-11.04827571 43.28016634 -11.04185065 40.48615761 -11.02783203 37.69189453 C-11.01073969 34.11043894 -11.02058164 30.52965777 -11.03854942 26.94822693 C-11.04939106 24.19440633 -11.04593929 21.44074558 -11.03816605 18.68692017 C-11.03519204 16.72429975 -11.04430167 14.76167311 -11.05355835 12.79907227 C-11.03937363 11.01206909 -11.03937363 11.01206909 -11.02490234 9.18896484 C-11.02251556 8.13878174 -11.02012878 7.08859863 -11.01766968 6.0065918 C-10.63671875 3.38818359 -10.63671875 3.38818359 -9.5897522 1.54989624 C-6.54422771 -0.26165713 -3.44222121 -0.02853493 0 0 Z M3.36328125 20.38818359 C3.36328125 29.95818359 3.36328125 39.52818359 3.36328125 49.38818359 C5.01328125 49.38818359 6.66328125 49.38818359 8.36328125 49.38818359 C8.36328125 42.78818359 8.36328125 36.18818359 8.36328125 29.38818359 C13.90758505 34.93248739 13.90758505 34.93248739 16.05078125 38.20068359 C16.81390625 39.25255859 17.57703125 40.30443359 18.36328125 41.38818359 C19.02328125 41.38818359 19.68328125 41.38818359 20.36328125 41.38818359 C21.8040284 39.60605459 23.16838774 37.76158084 24.48828125 35.88818359 C25.76703125 34.07318359 27.04578125 32.25818359 28.36328125 30.38818359 C28.69328125 36.65818359 29.02328125 42.92818359 29.36328125 49.38818359 C31.34328125 49.38818359 33.32328125 49.38818359 35.36328125 49.38818359 C35.36328125 39.81818359 35.36328125 30.24818359 35.36328125 20.38818359 C33.38328125 20.38818359 31.40328125 20.38818359 29.36328125 20.38818359 C27.40400403 22.40138587 26.01058115 24.08920008 24.48828125 26.38818359 C23.885 27.24669922 23.885 27.24669922 23.26953125 28.12255859 C22.28287515 29.53206731 21.32060019 30.95858731 20.36328125 32.38818359 C15.50612514 30.54288848 13.9029348 26.79338598 11.33984375 22.50537109 C10.68757813 21.80669922 10.0353125 21.10802734 9.36328125 20.38818359 C7.38328125 20.38818359 5.40328125 20.38818359 3.36328125 20.38818359 Z M52.36328125 20.38818359 C52.36328125 26.98818359 52.36328125 33.58818359 52.36328125 40.38818359 C50.71328125 40.38818359 49.06328125 40.38818359 47.36328125 40.38818359 C48.26500593 41.56643717 49.18529627 42.73049937 50.11328125 43.88818359 C50.62375 44.53787109 51.13421875 45.18755859 51.66015625 45.85693359 C53.47732421 47.83390874 53.47732421 47.83390874 57.36328125 47.38818359 C59.14088883 45.87808432 59.14088883 45.87808432 60.61328125 43.88818359 C61.1340625 43.23849609 61.65484375 42.58880859 62.19140625 41.91943359 C62.578125 41.41412109 62.96484375 40.90880859 63.36328125 40.38818359 C61.71328125 40.38818359 60.06328125 40.38818359 58.36328125 40.38818359 C58.36328125 33.78818359 58.36328125 27.18818359 58.36328125 20.38818359 C56.38328125 20.38818359 54.40328125 20.38818359 52.36328125 20.38818359 Z " fill="#000000" transform="translate(12.63671875,11.61181640625)"/>
</svg>
