<?xml version="1.0" encoding="UTF-8" standalone="no"?>
<svg version="1.0" xmlns="http://www.w3.org/2000/svg" width="1024" height="1024" viewBox="0 0 90 90" preserveAspectRatio="xMidYMid meet">
  <g transform="translate(0.000000,90.000000) scale(0.100000,-0.100000)" fill="#000000" stroke="none">
    <path d="M140 760 c-19 -19 -20 -33 -20 -310 0 -348 -7 -330 120 -330 127 0 120 -18 120 330 0 348 7 330 -120 330 -67 0 -83 -3 -100 -20z m125 -550 c0 -18 -6 -26 -23 -28 -13 -2 -25 3 -28 12 -10 26 4 48 28 44 17 -2 23 -10 23 -28z"/>
    <path d="M487 622 l-67 -68 0 -164 0 -165 150 150 c108 108 150 156 150 173 0 32 -110 142 -142 142 -16 0 -46 -22 -91 -68z"/>
    <path d="M525 240 l-120 -120 168 0 c208 0 207 0 207 120 0 100 -15 120 -88 120 -47 0 -48 0 -167 -120z"/>
  </g>
</svg>
