<?xml version="1.0" encoding="UTF-8"?>
<svg xmlns="http://www.w3.org/2000/svg" x="0px" y="0px" width="100" height="100" viewBox="0,0,256,256">
  <g transform="translate(-12.8,-12.8) scale(1.1,1.1)">
    <g fill="none" fill-rule="nonzero" stroke="none" stroke-width="1" stroke-linecap="butt" stroke-linejoin="miter" stroke-miterlimit="10" stroke-dasharray="" stroke-dashoffset="0" font-family="none" font-weight="none" font-size="none" text-anchor="none" style="mix-blend-mode: normal">
      <g transform="scale(5.33333,5.33333)">
        <path d="M17.5,44c-3.6,0 -6.5,-1.6 -6.5,-3.5c0,-1.9 2.9,-3.5 6.5,-3.5c3.6,0 6.5,1.6 6.5,3.5c0,1.9 -2.9,3.5 -6.5,3.5zM37,40.5c0,-1.9 -2.9,-3.5 -6.5,-3.5c-3.6,0 -6.5,1.6 -6.5,3.5c0,1.9 2.9,3.5 6.5,3.5c3.6,0 6.5,-1.6 6.5,-3.5z" fill="#ffc107"></path>
        <path d="M37.2,22.2c-0.1,-0.3 -0.2,-0.6 -0.3,-1c0.1,-0.5 0.1,-1 0.1,-1.5c0,-1.4 -0.1,-2.6 -0.1,-3.6c0,-6.7 -5.8,-12.1 -12.9,-12.1c-7.1,0 -13,5.4 -13,12.1c0,0.9 0,2.2 0,3.6c0,0.5 0,1 0.1,1.5c-0.1,0.3 -0.2,0.6 -0.3,1c-1.9,2.7 -3.8,6 -3.8,8.5c0,4.8 1.4,4.3 1.4,4.3c0.6,0 1.6,-1 2.5,-2.1c2.1,5.9 7.1,10.1 13.1,10.1c6,0 11,-4.2 13.1,-10.1c0.9,1.1 1.9,2.1 2.5,2.1c0,0 1.4,0.5 1.4,-4.3c0,-2.5 -1.9,-5.9 -3.8,-8.5z" fill="#37474f"></path>
        <path d="M14.7,23c-0.5,1.5 -0.7,3.1 -0.7,4.8c0,7.3 4.5,13.2 10,13.2c5.5,0 10,-5.9 10,-13.2c0,-1.7 -0.3,-3.3 -0.7,-4.8z" fill="#eceff1"></path>
        <path d="M23,13.5c0,1.9 -1.1,3.5 -2.5,3.5c-1.4,0 -2.5,-1.6 -2.5,-3.5c0,-1.9 1.1,-3.5 2.5,-3.5c1.4,0 2.5,1.6 2.5,3.5zM27.5,10c-1.4,0 -2.5,1.6 -2.5,3.5c0,1.9 1.1,3.5 2.5,3.5c1.4,0 2.5,-1.6 2.5,-3.5c0,-1.9 -1.1,-3.5 -2.5,-3.5z" fill="#ffffff"></path>
        <path d="M22,13.5c0,0.8 -0.4,1.5 -1,1.5c-0.6,0 -1,-0.7 -1,-1.5c0,-0.8 0.4,-1.5 1,-1.5c0.6,0 1,0.7 1,1.5zM27,12c-0.6,0 -1,0.7 -1,1.5c0,0.8 0.4,-0.5 1,-0.5c0.6,0 1,1.3 1,0.5c0,-0.8 -0.4,-1.5 -1,-1.5z" fill="#37474f"></path>
        <path d="M32,19.5c0,0.8 -3.6,2.5 -8,2.5c-4.4,0 -8,-1.7 -8,-2.5c0,-0.8 3.6,-1.5 8,-1.5c4.4,0 8,0.7 8,1.5z" fill="#ffc107"></path>
        <path d="M38.7,21.2c-0.4,-1.5 -1,-2.2 -2.1,-1.3c0,0 -5.9,3.1 -12.5,3.1v0.1v-0.1c-6.6,0 -12.5,-3.1 -12.5,-3.1c-1.1,-0.8 -1.7,-0.2 -2.1,1.3c-0.4,1.5 -0.7,2 0.7,2.8c0.1,0.1 1.4,0.8 3.4,1.7c-0.6,3.5 -0.5,6.8 -0.5,7c0.1,1.5 1.3,1.3 2.9,1.3c1.6,-0.1 2.9,0 2.9,-1.6c0,-0.9 0,-2.9 0.3,-5c1.6,0.3 3.2,0.6 5,0.6v0v0c7.3,0 13.7,-3.9 13.9,-4c1.2,-0.7 0.9,-1.2 0.6,-2.8z" fill="#ff3d00"></path>
        <path d="M13.2,27.7c1.6,0.6 3.5,1.3 5.6,1.7c0,-0.6 0.1,-1.3 0.2,-2c-2.1,-0.5 -4,-1.1 -5.5,-1.7c-0.1,0.7 -0.2,1.4 -0.3,2z" fill="#dd2c00"></path>
      </g>
    </g>
  </g>
</svg>
